<?xml version="1.0" encoding="UTF-8" standalone="no"?>
<!DOCTYPE svg PUBLIC "-//W3C//DTD SVG 1.1//EN" "http://www.w3.org/Graphics/SVG/1.1/DTD/svg11.dtd">
<svg width="100%" height="100%" viewBox="0 0 176 173" version="1.1" xmlns="http://www.w3.org/2000/svg" xmlns:xlink="http://www.w3.org/1999/xlink" xml:space="preserve" xmlns:serif="http://www.serif.com/" style="fill-rule:evenodd;clip-rule:evenodd;">
    <style>
        .aos-mark { stroke: #1b1916; }
        .aos-text { fill: #1b1916; }
        @media (prefers-color-scheme: dark) {
            .aos-mark { stroke: #ffffff; }
            .aos-text { fill: #ffffff; }
        }
    </style>
    <g transform="matrix(1,0,0,1,-32894.8,-28370.5)">
        <g id="Artboard13" transform="matrix(0.941176,0,0,0.925134,2085.4,2575.92)">
            <rect x="32735" y="27882" width="187" height="187" style="fill:none;"/>
            <clipPath id="_clip1">
                <rect x="32735" y="27882" width="187" height="187"/>
            </clipPath>
            <g clip-path="url(#_clip1)">
                <g transform="matrix(1.06596,0,0,1.08444,32736.7,27881.4)">
                    <path class="aos-mark" d="M164.529,52.792L164.529,120.844C164.529,145.347 144.635,165.241 120.132,165.241L52.08,165.241C27.577,165.241 7.683,145.347 7.683,120.844L7.683,52.792C7.683,28.289 27.577,8.395 52.08,8.395L120.132,8.395C144.635,8.395 164.529,28.289 164.529,52.792Z" style="fill:none;stroke-width:15.18px;"/>
                </g>
                <g transform="matrix(1.47233,0,0,1.49786,31705.9,27610.3)">
                    <g transform="matrix(50.1389,0,0,50.1389,797.963,261.867)">
                    </g>
                    <text class="aos-text" x="727.418px" y="261.867px" style="font-family:'Manrope-Bold', 'Manrope', sans-serif;font-weight:700;font-size:50.139px;">OS</text>
                </g>
            </g>
        </g>
    </g>
</svg>
