<svg xmlns="http://www.w3.org/2000/svg" viewBox="0 0 512 512" fill="#1b1916"><path d="M0 256a256 256 0 1 1 512 0 256 256 0 1 1 -512 0zm411.1 5.6c3-.6 5.9-1.8 8.4-3.7 2.3-2.4 3.4-5.6 3.2-8.9 0-2.6-.8-5.3-2.1-7.6-2.1-3.5-5.8-5.8-9.9-5.9l-2 0-4.8-.1-21.5 0c-1.3 0-1.9 .5-1.9 1.8l0 37.7c0 1.3 .5 1.9 1.9 1.9l5.6 0c1.3 0 1.9-.6 1.9-1.9l0-12.5 6.9 0c1.5 .1 3 .7 4 1.7L411.7 275c1 1 2.3 1.6 3.7 1.7l8.3 0c1.3 0 1.6-.8 .7-1.7l-13.3-13.4zm-1.4-8.1l-19.8 0 0-9.5 19.8 0c2 .3 3.5 1.9 3.5 4l0 1.4c0 2.1-1.5 3.8-3.5 4.1zm-37.8 14.3l-30.8 0 0-7.8 24.6 0c1.3 0 1.8-.5 1.8-1.9l0-4.5c0-1.3-.5-1.9-1.8-1.9l-24.6 0 0-7.8 30.8 0c1.3 0 1.8-.6 1.8-1.8l0-5.2c0-1.3-.5-1.8-1.8-1.8l-38.4 0c-1.3 0-1.8 .5-1.8 1.8l0 37.7c0 1.3 .5 1.9 1.8 1.9l38.4 0c1.3 0 1.8-.5 1.8-1.9l0-5.1c0-1.3-.6-1.9-1.9-1.9zm-47-19c.1-2.6-.7-5.2-2.1-7.4-2-3.6-5.8-5.9-10-6.1l-28.2 0c-1.3 0-1.9 .6-1.9 1.8l0 37.6c0 1.3 .5 1.9 1.9 1.9l6 0c1.3 0 1.9-.5 1.9-1.9l0-30.7 16.4 0c3.5 0 6.9 2.3 6.9 5.8l0 25c0 1.3 .5 1.9 1.8 1.9l5.5 0c1.3 0 1.9-.6 1.9-1.9l0-26zm-50.8 18.8l-26.5 0 26.6-23.3c1.1-.9 1.8-2.1 1.8-3.4l0-3.7c0-1.3-.5-1.8-1.8-1.8l-38.5 0c-1.3 0-1.8 .6-1.8 1.8l0 5.2c0 1.3 .5 1.8 1.8 1.8l24.7 0-24.8 23.2c-1.1 .9-1.8 2-1.9 3.4l0 4.1c0 1.3 .6 1.9 1.9 1.9l38.4 0c1.3 0 1.9-.6 1.9-1.9l0-5.4c.1-1.3-.4-1.9-1.8-1.9zm-48.9-32.3l-38.4 0c-1.3 0-1.9 .5-1.9 1.8l0 5.2c0 1.3 .5 1.8 1.9 1.8l14.5 0 0 30.7c0 1.3 .6 1.9 1.8 1.9l6.2 0c1.3 0 1.8-.6 1.8-1.9l0-30.7 14.1 0c1.3 0 1.9-.5 1.9-1.8l0-5.1c-.1-1.3-.6-1.9-1.9-1.9zm-48.9 32.6l-30.7 0 0-7.8 24.5 0c1.3 0 1.9-.5 1.9-1.9l0-4.5c0-1.3-.5-1.9-1.9-1.9l-24.5 0 0-7.8 30.7 0c1.3 0 1.8-.6 1.8-1.8l0-5.2c0-1.3-.5-1.8-1.8-1.8l-38.3 0c-1.3 0-1.9 .5-1.9 1.8l0 37.7c0 1.3 .6 1.9 1.9 1.9l38.3 0c1.3 0 1.8-.5 1.8-1.9l0-5.1c0-1.3-.5-1.9-1.8-1.9zm-48.9-32.6l-5.8 0c-1.3 0-1.8 .6-1.8 1.8l0 14.7-23.1 0 0-14.7c0-1.3-.5-1.8-1.8-1.8l-5.8 0c-1.3 0-1.8 .6-1.8 1.8l0 37.7c0 1.3 .5 1.9 1.8 1.9l5.8 0c1.3 0 1.8-.5 1.8-1.9l0-14.9 23.1 0 0 14.9c0 1.3 .5 1.9 1.8 1.9l5.8 0c1.3 0 1.9-.6 1.9-1.9l0-37.7c-.1-1.3-.6-1.8-1.9-1.8z"/></svg>
